<svg id="visual" viewBox="0 0 1980 1020" width="1980" height="1020" xmlns="http://www.w3.org/2000/svg" xmlns:xlink="http://www.w3.org/1999/xlink" version="1.1"><rect width="1980" height="1020" fill="#000000"></rect><g><g transform="translate(1434 456)"><path d="M0 -27.2L17.5 -20.8L26.8 -4.7L23.5 13.6L9.3 25.5L-9.3 25.5L-23.5 13.6L-26.8 -4.7L-17.5 -20.8Z" stroke="#ffffff" fill="none" stroke-width="2"></path></g><g transform="translate(1771 233)"><path d="M0 -25L16.1 -19.2L24.6 -4.3L21.7 12.5L8.6 23.5L-8.6 23.5L-21.7 12.5L-24.6 -4.3L-16.1 -19.2Z" stroke="#ffffff" fill="none" stroke-width="2"></path></g><g transform="translate(1002 939)"><path d="M0 -14L9 -10.7L13.8 -2.4L12.1 7L4.8 13.2L-4.8 13.2L-12.1 7L-13.8 -2.4L-9 -10.7Z" stroke="#ffffff" fill="none" stroke-width="2"></path></g><g transform="translate(597 530)"><path d="M0 -24L15.4 -18.4L23.6 -4.2L20.8 12L8.2 22.6L-8.2 22.6L-20.8 12L-23.6 -4.2L-15.4 -18.4Z" stroke="#ffffff" fill="none" stroke-width="2"></path></g><g transform="translate(730 77)"><path d="M0 -20L12.9 -15.3L19.7 -3.5L17.3 10L6.8 18.8L-6.8 18.8L-17.3 10L-19.7 -3.5L-12.9 -15.3Z" stroke="#ffffff" fill="none" stroke-width="2"></path></g><g transform="translate(166 830)"><path d="M0 -22L14.1 -16.9L21.7 -3.8L19.1 11L7.5 20.7L-7.5 20.7L-19.1 11L-21.7 -3.8L-14.1 -16.9Z" stroke="#ffffff" fill="none" stroke-width="2"></path></g><g transform="translate(1897 796)"><path d="M0 -21L13.5 -16.1L20.7 -3.6L18.2 10.5L7.2 19.7L-7.2 19.7L-18.2 10.5L-20.7 -3.6L-13.5 -16.1Z" stroke="#ffffff" fill="none" stroke-width="2"></path></g><g transform="translate(1760 712)"><path d="M0 -12L7.7 -9.2L11.8 -2.1L10.4 6L4.1 11.3L-4.1 11.3L-10.4 6L-11.8 -2.1L-7.7 -9.2Z" stroke="#ffffff" fill="none" stroke-width="2"></path></g><g transform="translate(1427 987)"><path d="M0 -24L15.4 -18.4L23.6 -4.2L20.8 12L8.2 22.6L-8.2 22.6L-20.8 12L-23.6 -4.2L-15.4 -18.4Z" stroke="#ffffff" fill="none" stroke-width="2"></path></g><g transform="translate(337 691)"><path d="M0 -26L16.7 -19.9L25.6 -4.5L22.5 13L8.9 24.4L-8.9 24.4L-22.5 13L-25.6 -4.5L-16.7 -19.9Z" stroke="#ffffff" fill="none" stroke-width="2"></path></g><g transform="translate(1295 791)"><path d="M0 -14L9 -10.7L13.8 -2.4L12.1 7L4.8 13.2L-4.8 13.2L-12.1 7L-13.8 -2.4L-9 -10.7Z" stroke="#ffffff" fill="none" stroke-width="2"></path></g><g transform="translate(1533 423)"><path d="M0 -6L3.9 -4.6L5.9 -1L5.2 3L2.1 5.6L-2.1 5.6L-5.2 3L-5.9 -1L-3.9 -4.6Z" stroke="#ffffff" fill="none" stroke-width="2"></path></g><g transform="translate(241 688)"><path d="M0 -13L8.4 -10L12.8 -2.3L11.3 6.5L4.4 12.2L-4.4 12.2L-11.3 6.5L-12.8 -2.3L-8.4 -10Z" stroke="#ffffff" fill="none" stroke-width="2"></path></g><g transform="translate(1907 252)"><path d="M0 -3L1.9 -2.3L3 -0.5L2.6 1.5L1 2.8L-1 2.8L-2.6 1.5L-3 -0.5L-1.9 -2.3Z" stroke="#ffffff" fill="none" stroke-width="2"></path></g><g transform="translate(1218 830)"><path d="M0 -14L9 -10.7L13.8 -2.4L12.1 7L4.8 13.2L-4.8 13.2L-12.1 7L-13.8 -2.4L-9 -10.7Z" stroke="#ffffff" fill="none" stroke-width="2"></path></g><g transform="translate(1816 1013)"><path d="M0 -3L1.9 -2.3L3 -0.5L2.6 1.5L1 2.8L-1 2.8L-2.6 1.5L-3 -0.5L-1.9 -2.3Z" stroke="#ffffff" fill="none" stroke-width="2"></path></g><g transform="translate(862 578)"><path d="M0 -14L9 -10.7L13.8 -2.4L12.1 7L4.8 13.2L-4.8 13.2L-12.1 7L-13.8 -2.4L-9 -10.7Z" stroke="#ffffff" fill="none" stroke-width="2"></path></g><g transform="translate(1410 917)"><path d="M0 -19L12.2 -14.6L18.7 -3.3L16.5 9.5L6.5 17.9L-6.5 17.9L-16.5 9.5L-18.7 -3.3L-12.2 -14.6Z" stroke="#ffffff" fill="none" stroke-width="2"></path></g><g transform="translate(1301 971)"><path d="M0 -19L12.2 -14.6L18.7 -3.3L16.5 9.5L6.5 17.9L-6.5 17.9L-16.5 9.5L-18.7 -3.3L-12.2 -14.6Z" stroke="#ffffff" fill="none" stroke-width="2"></path></g><g transform="translate(228 415)"><path d="M0 -24L15.4 -18.4L23.6 -4.2L20.8 12L8.2 22.6L-8.2 22.6L-20.8 12L-23.6 -4.2L-15.4 -18.4Z" stroke="#ffffff" fill="none" stroke-width="2"></path></g><g transform="translate(1475 228)"><path d="M0 -24L15.4 -18.4L23.6 -4.2L20.8 12L8.2 22.6L-8.2 22.6L-20.8 12L-23.6 -4.2L-15.4 -18.4Z" stroke="#ffffff" fill="none" stroke-width="2"></path></g><g transform="translate(1522 741)"><path d="M0 -15L9.6 -11.5L14.8 -2.6L13 7.5L5.1 14.1L-5.1 14.1L-13 7.5L-14.8 -2.6L-9.6 -11.5Z" stroke="#ffffff" fill="none" stroke-width="2"></path></g><g transform="translate(1311 333)"><path d="M0 -14L9 -10.7L13.8 -2.4L12.1 7L4.8 13.2L-4.8 13.2L-12.1 7L-13.8 -2.4L-9 -10.7Z" stroke="#ffffff" fill="none" stroke-width="2"></path></g><g transform="translate(553 959)"><path d="M0 -14L9 -10.7L13.8 -2.4L12.1 7L4.8 13.2L-4.8 13.2L-12.1 7L-13.8 -2.4L-9 -10.7Z" stroke="#ffffff" fill="none" stroke-width="2"></path></g><g transform="translate(847 714)"><path d="M0 -15L9.6 -11.5L14.8 -2.6L13 7.5L5.1 14.1L-5.1 14.1L-13 7.5L-14.8 -2.6L-9.6 -11.5Z" stroke="#ffffff" fill="none" stroke-width="2"></path></g><g transform="translate(1405 316)"><path d="M0 -13L8.4 -10L12.8 -2.3L11.3 6.5L4.4 12.2L-4.4 12.2L-11.3 6.5L-12.8 -2.3L-8.4 -10Z" stroke="#ffffff" fill="none" stroke-width="2"></path></g><g transform="translate(1630 909)"><path d="M0 -14L9 -10.7L13.8 -2.4L12.1 7L4.8 13.2L-4.8 13.2L-12.1 7L-13.8 -2.4L-9 -10.7Z" stroke="#ffffff" fill="none" stroke-width="2"></path></g><g transform="translate(1116 108)"><path d="M0 -3L1.9 -2.3L3 -0.5L2.6 1.5L1 2.8L-1 2.8L-2.6 1.5L-3 -0.5L-1.9 -2.3Z" stroke="#ffffff" fill="none" stroke-width="2"></path></g><g transform="translate(976 663)"><path d="M0 -12L7.7 -9.2L11.8 -2.1L10.4 6L4.1 11.3L-4.1 11.3L-10.4 6L-11.8 -2.1L-7.7 -9.2Z" stroke="#ffffff" fill="none" stroke-width="2"></path></g><g transform="translate(852 446)"><path d="M0 -4L2.6 -3.1L3.9 -0.7L3.5 2L1.4 3.8L-1.4 3.8L-3.5 2L-3.9 -0.7L-2.6 -3.1Z" stroke="#ffffff" fill="none" stroke-width="2"></path></g><g transform="translate(1706 956)"><path d="M0 -9L5.8 -6.9L8.9 -1.6L7.8 4.5L3.1 8.5L-3.1 8.5L-7.8 4.5L-8.9 -1.6L-5.8 -6.9Z" stroke="#ffffff" fill="none" stroke-width="2"></path></g><g transform="translate(391 916)"><path d="M0 -16L10.3 -12.3L15.8 -2.8L13.9 8L5.5 15L-5.5 15L-13.9 8L-15.8 -2.8L-10.3 -12.3Z" stroke="#ffffff" fill="none" stroke-width="2"></path></g><g transform="translate(918 743)"><path d="M0 -14L9 -10.7L13.8 -2.4L12.1 7L4.8 13.2L-4.8 13.2L-12.1 7L-13.8 -2.4L-9 -10.7Z" stroke="#ffffff" fill="none" stroke-width="2"></path></g><g transform="translate(1618 281)"><path d="M0 -20L12.9 -15.3L19.7 -3.5L17.3 10L6.8 18.8L-6.8 18.8L-17.3 10L-19.7 -3.5L-12.9 -15.3Z" stroke="#ffffff" fill="none" stroke-width="2"></path></g><g transform="translate(62 294)"><path d="M0 -18L11.6 -13.8L17.7 -3.1L15.6 9L6.2 16.9L-6.2 16.9L-15.6 9L-17.7 -3.1L-11.6 -13.8Z" stroke="#ffffff" fill="none" stroke-width="2"></path></g><g transform="translate(23 460)"><path d="M0 -4L2.6 -3.1L3.9 -0.7L3.5 2L1.4 3.8L-1.4 3.8L-3.5 2L-3.9 -0.7L-2.6 -3.1Z" stroke="#ffffff" fill="none" stroke-width="2"></path></g><g transform="translate(92 807)"><path d="M0 -8L5.1 -6.1L7.9 -1.4L6.9 4L2.7 7.5L-2.7 7.5L-6.9 4L-7.9 -1.4L-5.1 -6.1Z" stroke="#ffffff" fill="none" stroke-width="2"></path></g><g transform="translate(774 18)"><path d="M0 -5L3.2 -3.8L4.9 -0.9L4.3 2.5L1.7 4.7L-1.7 4.7L-4.3 2.5L-4.9 -0.9L-3.2 -3.8Z" stroke="#ffffff" fill="none" stroke-width="2"></path></g><g transform="translate(1964 200)"><path d="M0 -12L7.7 -9.2L11.8 -2.1L10.4 6L4.1 11.3L-4.1 11.3L-10.4 6L-11.8 -2.1L-7.7 -9.2Z" stroke="#ffffff" fill="none" stroke-width="2"></path></g><g transform="translate(1600 575)"><path d="M0 -19L12.2 -14.6L18.7 -3.3L16.5 9.5L6.5 17.9L-6.5 17.9L-16.5 9.5L-18.7 -3.3L-12.2 -14.6Z" stroke="#ffffff" fill="none" stroke-width="2"></path></g><g transform="translate(1693 524)"><path d="M0 -11L7.1 -8.4L10.8 -1.9L9.5 5.5L3.8 10.3L-3.8 10.3L-9.5 5.5L-10.8 -1.9L-7.1 -8.4Z" stroke="#ffffff" fill="none" stroke-width="2"></path></g><g transform="translate(1209 38)"><path d="M0 -20L12.9 -15.3L19.7 -3.5L17.3 10L6.8 18.8L-6.8 18.8L-17.3 10L-19.7 -3.5L-12.9 -15.3Z" stroke="#ffffff" fill="none" stroke-width="2"></path></g><g transform="translate(37 910)"><path d="M0 -8L5.1 -6.1L7.9 -1.4L6.9 4L2.7 7.5L-2.7 7.5L-6.9 4L-7.9 -1.4L-5.1 -6.1Z" stroke="#ffffff" fill="none" stroke-width="2"></path></g><g transform="translate(7 733)"><path d="M0 -21L13.5 -16.1L20.7 -3.6L18.2 10.5L7.2 19.7L-7.2 19.7L-18.2 10.5L-20.7 -3.6L-13.5 -16.1Z" stroke="#ffffff" fill="none" stroke-width="2"></path></g><g transform="translate(131 592)"><path d="M0 -23L14.8 -17.6L22.7 -4L19.9 11.5L7.9 21.6L-7.9 21.6L-19.9 11.5L-22.7 -4L-14.8 -17.6Z" stroke="#ffffff" fill="none" stroke-width="2"></path></g><g transform="translate(1776 113)"><path d="M0 -9L5.8 -6.9L8.9 -1.6L7.8 4.5L3.1 8.5L-3.1 8.5L-7.8 4.5L-8.9 -1.6L-5.8 -6.9Z" stroke="#ffffff" fill="none" stroke-width="2"></path></g><g transform="translate(352 435)"><path d="M0 -8L5.1 -6.1L7.9 -1.4L6.9 4L2.7 7.5L-2.7 7.5L-6.9 4L-7.9 -1.4L-5.1 -6.1Z" stroke="#ffffff" fill="none" stroke-width="2"></path></g><g transform="translate(370 522)"><path d="M0 -15L9.6 -11.5L14.8 -2.6L13 7.5L5.1 14.1L-5.1 14.1L-13 7.5L-14.8 -2.6L-9.6 -11.5Z" stroke="#ffffff" fill="none" stroke-width="2"></path></g><g transform="translate(1039 755)"><path d="M0 -6L3.9 -4.6L5.9 -1L5.2 3L2.1 5.6L-2.1 5.6L-5.2 3L-5.9 -1L-3.9 -4.6Z" stroke="#ffffff" fill="none" stroke-width="2"></path></g><g transform="translate(149 370)"><path d="M0 -23L14.8 -17.6L22.7 -4L19.9 11.5L7.9 21.6L-7.9 21.6L-19.9 11.5L-22.7 -4L-14.8 -17.6Z" stroke="#ffffff" fill="none" stroke-width="2"></path></g><g transform="translate(1110 688)"><path d="M0 -7L4.5 -5.4L6.9 -1.2L6.1 3.5L2.4 6.6L-2.4 6.6L-6.1 3.5L-6.9 -1.2L-4.5 -5.4Z" stroke="#ffffff" fill="none" stroke-width="2"></path></g><g transform="translate(185 327)"><path d="M0 -17L10.9 -13L16.7 -3L14.7 8.5L5.8 16L-5.8 16L-14.7 8.5L-16.7 -3L-10.9 -13Z" stroke="#ffffff" fill="none" stroke-width="2"></path></g><g transform="translate(134 924)"><path d="M0 -20L12.9 -15.3L19.7 -3.5L17.3 10L6.8 18.8L-6.8 18.8L-17.3 10L-19.7 -3.5L-12.9 -15.3Z" stroke="#ffffff" fill="none" stroke-width="2"></path></g><g transform="translate(646 817)"><path d="M0 -3L1.9 -2.3L3 -0.5L2.6 1.5L1 2.8L-1 2.8L-2.6 1.5L-3 -0.5L-1.9 -2.3Z" stroke="#ffffff" fill="none" stroke-width="2"></path></g><g transform="translate(588 205)"><path d="M0 -8L5.1 -6.1L7.9 -1.4L6.9 4L2.7 7.5L-2.7 7.5L-6.9 4L-7.9 -1.4L-5.1 -6.1Z" stroke="#ffffff" fill="none" stroke-width="2"></path></g><g transform="translate(1841 177)"><path d="M0 -12L7.7 -9.2L11.8 -2.1L10.4 6L4.1 11.3L-4.1 11.3L-10.4 6L-11.8 -2.1L-7.7 -9.2Z" stroke="#ffffff" fill="none" stroke-width="2"></path></g><g transform="translate(911 234)"><path d="M0 -22L14.1 -16.9L21.7 -3.8L19.1 11L7.5 20.7L-7.5 20.7L-19.1 11L-21.7 -3.8L-14.1 -16.9Z" stroke="#ffffff" fill="none" stroke-width="2"></path></g><g transform="translate(842 108)"><path d="M0 -24L15.4 -18.4L23.6 -4.2L20.8 12L8.2 22.6L-8.2 22.6L-20.8 12L-23.6 -4.2L-15.4 -18.4Z" stroke="#ffffff" fill="none" stroke-width="2"></path></g><g transform="translate(457 143)"><path d="M0 -23L14.8 -17.6L22.7 -4L19.9 11.5L7.9 21.6L-7.9 21.6L-19.9 11.5L-22.7 -4L-14.8 -17.6Z" stroke="#ffffff" fill="none" stroke-width="2"></path></g><g transform="translate(749 491)"><path d="M0 -18L11.6 -13.8L17.7 -3.1L15.6 9L6.2 16.9L-6.2 16.9L-15.6 9L-17.7 -3.1L-11.6 -13.8Z" stroke="#ffffff" fill="none" stroke-width="2"></path></g><g transform="translate(474 341)"><path d="M0 -19L12.2 -14.6L18.7 -3.3L16.5 9.5L6.5 17.9L-6.5 17.9L-16.5 9.5L-18.7 -3.3L-12.2 -14.6Z" stroke="#ffffff" fill="none" stroke-width="2"></path></g><g transform="translate(1091 858)"><path d="M0 -17L10.9 -13L16.7 -3L14.7 8.5L5.8 16L-5.8 16L-14.7 8.5L-16.7 -3L-10.9 -13Z" stroke="#ffffff" fill="none" stroke-width="2"></path></g><g transform="translate(1085 625)"><path d="M0 -3L1.9 -2.3L3 -0.5L2.6 1.5L1 2.8L-1 2.8L-2.6 1.5L-3 -0.5L-1.9 -2.3Z" stroke="#ffffff" fill="none" stroke-width="2"></path></g><g transform="translate(689 527)"><path d="M0 -17L10.9 -13L16.7 -3L14.7 8.5L5.8 16L-5.8 16L-14.7 8.5L-16.7 -3L-10.9 -13Z" stroke="#ffffff" fill="none" stroke-width="2"></path></g><g transform="translate(833 298)"><path d="M0 -22L14.1 -16.9L21.7 -3.8L19.1 11L7.5 20.7L-7.5 20.7L-19.1 11L-21.7 -3.8L-14.1 -16.9Z" stroke="#ffffff" fill="none" stroke-width="2"></path></g><g transform="translate(274 991)"><path d="M0 -20L12.9 -15.3L19.7 -3.5L17.3 10L6.8 18.8L-6.8 18.8L-17.3 10L-19.7 -3.5L-12.9 -15.3Z" stroke="#ffffff" fill="none" stroke-width="2"></path></g><g transform="translate(711 1016)"><path d="M0 -20L12.9 -15.3L19.7 -3.5L17.3 10L6.8 18.8L-6.8 18.8L-17.3 10L-19.7 -3.5L-12.9 -15.3Z" stroke="#ffffff" fill="none" stroke-width="2"></path></g><g transform="translate(648 948)"><path d="M0 -9L5.8 -6.9L8.9 -1.6L7.8 4.5L3.1 8.5L-3.1 8.5L-7.8 4.5L-8.9 -1.6L-5.8 -6.9Z" stroke="#ffffff" fill="none" stroke-width="2"></path></g><g transform="translate(1588 67)"><path d="M0 -14L9 -10.7L13.8 -2.4L12.1 7L4.8 13.2L-4.8 13.2L-12.1 7L-13.8 -2.4L-9 -10.7Z" stroke="#ffffff" fill="none" stroke-width="2"></path></g><g transform="translate(406 374)"><path d="M0 -13L8.4 -10L12.8 -2.3L11.3 6.5L4.4 12.2L-4.4 12.2L-11.3 6.5L-12.8 -2.3L-8.4 -10Z" stroke="#ffffff" fill="none" stroke-width="2"></path></g><g transform="translate(730 326)"><path d="M0 -12L7.7 -9.2L11.8 -2.1L10.4 6L4.1 11.3L-4.1 11.3L-10.4 6L-11.8 -2.1L-7.7 -9.2Z" stroke="#ffffff" fill="none" stroke-width="2"></path></g><g transform="translate(545 108)"><path d="M0 -9L5.8 -6.9L8.9 -1.6L7.8 4.5L3.1 8.5L-3.1 8.5L-7.8 4.5L-8.9 -1.6L-5.8 -6.9Z" stroke="#ffffff" fill="none" stroke-width="2"></path></g><g transform="translate(1976 617)"><path d="M0 -13L8.4 -10L12.8 -2.3L11.3 6.5L4.4 12.2L-4.4 12.2L-11.3 6.5L-12.8 -2.3L-8.4 -10Z" stroke="#ffffff" fill="none" stroke-width="2"></path></g><g transform="translate(1841 308)"><path d="M0 -19L12.2 -14.6L18.7 -3.3L16.5 9.5L6.5 17.9L-6.5 17.9L-16.5 9.5L-18.7 -3.3L-12.2 -14.6Z" stroke="#ffffff" fill="none" stroke-width="2"></path></g><g transform="translate(648 698)"><path d="M0 -18L11.6 -13.8L17.7 -3.1L15.6 9L6.2 16.9L-6.2 16.9L-15.6 9L-17.7 -3.1L-11.6 -13.8Z" stroke="#ffffff" fill="none" stroke-width="2"></path></g><g transform="translate(1659 178)"><path d="M0 -19L12.2 -14.6L18.7 -3.3L16.5 9.5L6.5 17.9L-6.5 17.9L-16.5 9.5L-18.7 -3.3L-12.2 -14.6Z" stroke="#ffffff" fill="none" stroke-width="2"></path></g><g transform="translate(425 764)"><path d="M0 -17L10.9 -13L16.7 -3L14.7 8.5L5.8 16L-5.8 16L-14.7 8.5L-16.7 -3L-10.9 -13Z" stroke="#ffffff" fill="none" stroke-width="2"></path></g><g transform="translate(184 705)"><path d="M0 -22L14.1 -16.9L21.7 -3.8L19.1 11L7.5 20.7L-7.5 20.7L-19.1 11L-21.7 -3.8L-14.1 -16.9Z" stroke="#ffffff" fill="none" stroke-width="2"></path></g><g transform="translate(753 416)"><path d="M0 -22L14.1 -16.9L21.7 -3.8L19.1 11L7.5 20.7L-7.5 20.7L-19.1 11L-21.7 -3.8L-14.1 -16.9Z" stroke="#ffffff" fill="none" stroke-width="2"></path></g><g transform="translate(1511 307)"><path d="M0 -15L9.6 -11.5L14.8 -2.6L13 7.5L5.1 14.1L-5.1 14.1L-13 7.5L-14.8 -2.6L-9.6 -11.5Z" stroke="#ffffff" fill="none" stroke-width="2"></path></g><g transform="translate(1977 741)"><path d="M0 -17L10.9 -13L16.7 -3L14.7 8.5L5.8 16L-5.8 16L-14.7 8.5L-16.7 -3L-10.9 -13Z" stroke="#ffffff" fill="none" stroke-width="2"></path></g><g transform="translate(1425 573)"><path d="M0 -23L14.8 -17.6L22.7 -4L19.9 11.5L7.9 21.6L-7.9 21.6L-19.9 11.5L-22.7 -4L-14.8 -17.6Z" stroke="#ffffff" fill="none" stroke-width="2"></path></g><g transform="translate(1011 427)"><path d="M0 -21L13.5 -16.1L20.7 -3.6L18.2 10.5L7.2 19.7L-7.2 19.7L-18.2 10.5L-20.7 -3.6L-13.5 -16.1Z" stroke="#ffffff" fill="none" stroke-width="2"></path></g><g transform="translate(367 123)"><path d="M0 -9L5.8 -6.9L8.9 -1.6L7.8 4.5L3.1 8.5L-3.1 8.5L-7.8 4.5L-8.9 -1.6L-5.8 -6.9Z" stroke="#ffffff" fill="none" stroke-width="2"></path></g><g transform="translate(589 719)"><path d="M0 -6L3.9 -4.6L5.9 -1L5.2 3L2.1 5.6L-2.1 5.6L-5.2 3L-5.9 -1L-3.9 -4.6Z" stroke="#ffffff" fill="none" stroke-width="2"></path></g><g transform="translate(69 689)"><path d="M0 -9L5.8 -6.9L8.9 -1.6L7.8 4.5L3.1 8.5L-3.1 8.5L-7.8 4.5L-8.9 -1.6L-5.8 -6.9Z" stroke="#ffffff" fill="none" stroke-width="2"></path></g><g transform="translate(439 495)"><path d="M0 -26L16.7 -19.9L25.6 -4.5L22.5 13L8.9 24.4L-8.9 24.4L-22.5 13L-25.6 -4.5L-16.7 -19.9Z" stroke="#ffffff" fill="none" stroke-width="2"></path></g><g transform="translate(1352 443)"><path d="M0 -5L3.2 -3.8L4.9 -0.9L4.3 2.5L1.7 4.7L-1.7 4.7L-4.3 2.5L-4.9 -0.9L-3.2 -3.8Z" stroke="#ffffff" fill="none" stroke-width="2"></path></g><g transform="translate(536 849)"><path d="M0 -13L8.4 -10L12.8 -2.3L11.3 6.5L4.4 12.2L-4.4 12.2L-11.3 6.5L-12.8 -2.3L-8.4 -10Z" stroke="#ffffff" fill="none" stroke-width="2"></path></g><g transform="translate(315 204)"><path d="M0 -12L7.7 -9.2L11.8 -2.1L10.4 6L4.1 11.3L-4.1 11.3L-10.4 6L-11.8 -2.1L-7.7 -9.2Z" stroke="#ffffff" fill="none" stroke-width="2"></path></g><g transform="translate(941 611)"><path d="M0 -26L16.7 -19.9L25.6 -4.5L22.5 13L8.9 24.4L-8.9 24.4L-22.5 13L-25.6 -4.5L-16.7 -19.9Z" stroke="#ffffff" fill="none" stroke-width="2"></path></g><g transform="translate(1552 141)"><path d="M0 -10L6.4 -7.7L9.8 -1.7L8.7 5L3.4 9.4L-3.4 9.4L-8.7 5L-9.8 -1.7L-6.4 -7.7Z" stroke="#ffffff" fill="none" stroke-width="2"></path></g><g transform="translate(1648 112)"><path d="M0 -10L6.4 -7.7L9.8 -1.7L8.7 5L3.4 9.4L-3.4 9.4L-8.7 5L-9.8 -1.7L-6.4 -7.7Z" stroke="#ffffff" fill="none" stroke-width="2"></path></g><g transform="translate(537 613)"><path d="M0 -15L9.6 -11.5L14.8 -2.6L13 7.5L5.1 14.1L-5.1 14.1L-13 7.5L-14.8 -2.6L-9.6 -11.5Z" stroke="#ffffff" fill="none" stroke-width="2"></path></g><g transform="translate(603 655)"><path d="M0 -10L6.4 -7.7L9.8 -1.7L8.7 5L3.4 9.4L-3.4 9.4L-8.7 5L-9.8 -1.7L-6.4 -7.7Z" stroke="#ffffff" fill="none" stroke-width="2"></path></g><g transform="translate(1294 656)"><path d="M0 -16L10.3 -12.3L15.8 -2.8L13.9 8L5.5 15L-5.5 15L-13.9 8L-15.8 -2.8L-10.3 -12.3Z" stroke="#ffffff" fill="none" stroke-width="2"></path></g><g transform="translate(1857 624)"><path d="M0 -8L5.1 -6.1L7.9 -1.4L6.9 4L2.7 7.5L-2.7 7.5L-6.9 4L-7.9 -1.4L-5.1 -6.1Z" stroke="#ffffff" fill="none" stroke-width="2"></path></g><g transform="translate(1077 977)"><path d="M0 -6L3.9 -4.6L5.9 -1L5.2 3L2.1 5.6L-2.1 5.6L-5.2 3L-5.9 -1L-3.9 -4.6Z" stroke="#ffffff" fill="none" stroke-width="2"></path></g><g transform="translate(408 36)"><path d="M0 -10L6.4 -7.7L9.8 -1.7L8.7 5L3.4 9.4L-3.4 9.4L-8.7 5L-9.8 -1.7L-6.4 -7.7Z" stroke="#ffffff" fill="none" stroke-width="2"></path></g><g transform="translate(1893 555)"><path d="M0 -10L6.4 -7.7L9.8 -1.7L8.7 5L3.4 9.4L-3.4 9.4L-8.7 5L-9.8 -1.7L-6.4 -7.7Z" stroke="#ffffff" fill="none" stroke-width="2"></path></g><g transform="translate(497 955)"><path d="M0 -4L2.6 -3.1L3.9 -0.7L3.5 2L1.4 3.8L-1.4 3.8L-3.5 2L-3.9 -0.7L-2.6 -3.1Z" stroke="#ffffff" fill="none" stroke-width="2"></path></g><g transform="translate(284 318)"><path d="M0 -25L16.1 -19.2L24.6 -4.3L21.7 12.5L8.6 23.5L-8.6 23.5L-21.7 12.5L-24.6 -4.3L-16.1 -19.2Z" stroke="#ffffff" fill="none" stroke-width="2"></path></g><g transform="translate(96 4)"><path d="M0 -19L12.2 -14.6L18.7 -3.3L16.5 9.5L6.5 17.9L-6.5 17.9L-16.5 9.5L-18.7 -3.3L-12.2 -14.6Z" stroke="#ffffff" fill="none" stroke-width="2"></path></g><g transform="translate(27 148)"><path d="M0 -20L12.9 -15.3L19.7 -3.5L17.3 10L6.8 18.8L-6.8 18.8L-17.3 10L-19.7 -3.5L-12.9 -15.3Z" stroke="#ffffff" fill="none" stroke-width="2"></path></g><g transform="translate(294 844)"><path d="M0 -24L15.4 -18.4L23.6 -4.2L20.8 12L8.2 22.6L-8.2 22.6L-20.8 12L-23.6 -4.2L-15.4 -18.4Z" stroke="#ffffff" fill="none" stroke-width="2"></path></g><g transform="translate(510 158)"><path d="M0 -4L2.6 -3.1L3.9 -0.7L3.5 2L1.4 3.8L-1.4 3.8L-3.5 2L-3.9 -0.7L-2.6 -3.1Z" stroke="#ffffff" fill="none" stroke-width="2"></path></g><g transform="translate(1207 592)"><path d="M0 -5L3.2 -3.8L4.9 -0.9L4.3 2.5L1.7 4.7L-1.7 4.7L-4.3 2.5L-4.9 -0.9L-3.2 -3.8Z" stroke="#ffffff" fill="none" stroke-width="2"></path></g><g transform="translate(1238 689)"><path d="M0 -13L8.4 -10L12.8 -2.3L11.3 6.5L4.4 12.2L-4.4 12.2L-11.3 6.5L-12.8 -2.3L-8.4 -10Z" stroke="#ffffff" fill="none" stroke-width="2"></path></g></g></svg>